<?xml version="1.0" encoding="UTF-8" standalone="no"?>
<!-- Created with Inkscape (http://www.inkscape.org/) -->

<svg
   version="1.1"
   id="svg48"
   width="471.65961"
   height="75.862671"
   viewBox="0 0 471.65961 75.862671"
   sodipodi:docname="CYC-Logo.ai"
   xmlns:inkscape="http://www.inkscape.org/namespaces/inkscape"
   xmlns:sodipodi="http://sodipodi.sourceforge.net/DTD/sodipodi-0.dtd"
   xmlns="http://www.w3.org/2000/svg"
   xmlns:svg="http://www.w3.org/2000/svg">
  <defs
     id="defs52">
    <clipPath
       clipPathUnits="userSpaceOnUse"
       id="clipPath64">
      <path
         d="M 0,792 H 612 V 0 H 0 Z"
         id="path62" />
    </clipPath>
  </defs>
  <sodipodi:namedview
     id="namedview50"
     pagecolor="#ffffff"
     bordercolor="#000000"
     borderopacity="0.25"
     inkscape:showpageshadow="2"
     inkscape:pageopacity="0.0"
     inkscape:pagecheckerboard="0"
     inkscape:deskcolor="#d1d1d1"
     showgrid="false" />
  <g
     id="g56"
     inkscape:groupmode="layer"
     inkscape:label="Page 1"
     transform="matrix(1.3333333,0,0,-1.3333333,-174.44499,555.59052)">
    <g
       id="g58">
      <g
         id="g60"
         clip-path="url(#clipPath64)">
        <g
           id="g66"
           transform="translate(202.4395,383.5186)">
          <path
             d="M 0,0 C -1.173,-2.506 -3.378,-4.081 -5.413,-4.585 -6.204,-4.795 -7.049,-4.9 -7.948,-4.9 c -2.479,0.064 -4.483,0.649 -6.727,3.118 -2.372,2.785 -2.98,6.449 -1.599,10.035 0.444,1.063 1.096,2.096 2.075,3.1 1.813,1.848 4.155,2.656 6.275,2.631 1.823,0 3.425,-0.44 4.804,-1.321 0.69,-0.44 1.295,-0.972 1.815,-1.595 C -0.785,10.445 -0.35,9.73 0,8.925 h -3.03 c -1.25,1.813 -3.233,2.452 -4.926,2.429 -1.536,-0.039 -2.912,-0.396 -4.412,-1.898 -2.13,-2.272 -2.632,-5.685 -0.915,-8.708 0.222,-0.365 0.477,-0.702 0.766,-1.01 1.212,-1.313 2.985,-2.067 4.554,-2.049 1.463,0.032 2.576,0.284 3.872,1.32 0.337,0.286 0.637,0.616 0.902,0.991 z"
             style="fill:#424243;fill-opacity:1;fill-rule:evenodd;stroke:none"
             id="path68" />
        </g>
        <g
           id="g70"
           transform="translate(205.2441,385.8115)">
          <path
             d="m 0,0 c 0.037,1.807 0.41,3.324 1.907,5.002 2.098,2.279 4.89,2.872 7.645,1.77 0.78,-0.335 1.534,-0.829 2.267,-1.584 2.352,-2.531 2.725,-5.844 0.964,-9.007 C 12.552,-4.208 12.288,-4.568 11.99,-4.901 10.568,-6.521 8.67,-7.255 6.967,-7.233 5.135,-7.19 3.659,-6.78 2.004,-5.088 0.738,-3.753 -0.021,-1.756 0,0 m 2.511,0.025 c 0,-1.368 0.426,-2.508 1.276,-3.421 0.976,-1.032 2.04,-1.359 3.18,-1.367 1.245,0 2.288,0.458 3.131,1.374 0.955,1.054 1.256,2.205 1.263,3.439 0,1.386 -0.421,2.529 -1.263,3.433 C 9.13,4.508 8.074,4.83 6.942,4.839 5.689,4.839 4.637,4.381 3.787,3.465 2.822,2.41 2.519,1.26 2.511,0.025"
             style="fill:#424243;fill-opacity:1;fill-rule:evenodd;stroke:none"
             id="path72" />
        </g>
        <path
           d="m 222.28,397.144 h 2.392 v -18.167 h -2.392 z"
           style="fill:#424243;fill-opacity:1;fill-rule:evenodd;stroke:none"
           id="path74" />
        <path
           d="m 228.633,397.144 h 2.392 v -18.167 h -2.392 z"
           style="fill:#424243;fill-opacity:1;fill-rule:evenodd;stroke:none"
           id="path76" />
        <path
           d="m 234.986,392.682 h 2.392 v -13.705 h -2.392 z m 2.391,1.593 h -2.392 v 2.829 h 2.392 z"
           style="fill:#424243;fill-opacity:1;fill-rule:evenodd;stroke:none"
           id="path78" />
        <g
           id="g80"
           transform="translate(243.77,378.9766)">
          <path
             d="m 0,0 h -2.432 v 13.705 h 2.334 v -1.534 c 1.13,1.395 2.479,1.777 3.741,1.773 1.754,0 3.101,-0.526 4.039,-1.58 0.469,-0.527 0.82,-1.168 1.055,-1.923 C 8.972,9.686 9.089,8.816 9.089,7.833 V 0 H 6.657 v 7.296 c 0,1.458 -0.263,2.538 -0.791,3.242 C 5.603,10.89 5.267,11.154 4.859,11.33 4.452,11.506 3.972,11.594 3.42,11.594 2.219,11.594 1.349,11.18 0.81,10.351 0.54,9.937 0.337,9.387 0.203,8.703 0.067,8.019 0,7.2 0,6.246 Z"
             style="fill:#424243;fill-opacity:1;fill-rule:evenodd;stroke:none"
             id="path82" />
        </g>
        <g
           id="g84"
           transform="translate(258.6138,385.917)">
          <path
             d="m 0,0 c 0,-1.391 0.449,-2.557 1.348,-3.497 1.02,-1.057 2.123,-1.404 3.299,-1.411 1.187,0 2.234,0.472 3.141,1.417 0.995,1.044 1.355,2.151 1.359,3.316 C 9.147,1.174 8.698,2.329 7.8,3.291 6.798,4.354 5.729,4.728 4.598,4.733 3.33,4.733 2.246,4.275 1.348,3.359 0.339,2.32 0.007,1.196 0,0 m -1.634,-8.056 h 2.591 c 0.822,-1.44 2.315,-1.976 3.546,-1.952 1.357,0 2.45,0.416 3.279,1.25 0.414,0.416 0.725,0.902 0.932,1.453 0.225,0.599 0.325,1.281 0.311,2.036 -1.289,-1.39 -2.98,-2.007 -4.504,-1.99 -2.019,0 -3.696,0.688 -5.03,2.065 -0.668,0.688 -1.168,1.463 -1.502,2.325 -0.689,1.819 -0.841,4.469 0.608,6.808 0.237,0.381 0.511,0.736 0.82,1.064 1.511,1.643 3.289,2.13 4.957,2.121 C 6.098,7.089 7.498,6.67 9.049,5.117 v 1.648 h 2.432 V -4.684 c 0,-2.387 -0.607,-4.256 -1.821,-5.608 -0.607,-0.676 -1.328,-1.183 -2.164,-1.521 -0.835,-0.336 -1.785,-0.505 -2.848,-0.505 -1.54,0 -2.856,0.371 -3.947,1.115 -0.546,0.372 -1.014,0.82 -1.403,1.345 -0.389,0.524 -0.7,1.125 -0.932,1.802"
             style="fill:#424243;fill-opacity:1;fill-rule:evenodd;stroke:none"
             id="path86" />
        </g>
        <g
           id="g88"
           transform="translate(281.4478,388.2588)">
          <path
             d="M 0,0 -2.728,-9.282 H -4.083 L -8.748,4.423 h 2.583 l 2.766,-9.058 2.704,9.058 H 0.78 L 3.521,-4.635 6.288,4.423 H 8.833 L 4.168,-9.282 H 2.813 Z"
             style="fill:#424243;fill-opacity:1;fill-rule:evenodd;stroke:none"
             id="path90" />
        </g>
        <g
           id="g92"
           transform="translate(292.0884,385.8115)">
          <path
             d="m 0,0 c 0.037,1.807 0.41,3.324 1.907,5.002 2.098,2.279 4.89,2.872 7.645,1.77 0.78,-0.335 1.534,-0.829 2.267,-1.584 2.352,-2.531 2.725,-5.844 0.965,-9.007 C 12.552,-4.208 12.288,-4.568 11.99,-4.901 10.568,-6.521 8.67,-7.255 6.967,-7.233 5.135,-7.19 3.659,-6.78 2.004,-5.088 0.738,-3.753 -0.021,-1.756 0,0 m 2.511,0.025 c 0,-1.368 0.426,-2.508 1.276,-3.421 0.976,-1.032 2.04,-1.359 3.18,-1.367 1.245,0 2.288,0.458 3.131,1.374 0.956,1.054 1.256,2.205 1.263,3.439 0,1.386 -0.421,2.529 -1.263,3.433 C 9.13,4.508 8.074,4.83 6.942,4.839 5.689,4.839 4.638,4.381 3.787,3.465 2.822,2.41 2.52,1.26 2.511,0.025"
             style="fill:#424243;fill-opacity:1;fill-rule:evenodd;stroke:none"
             id="path94" />
        </g>
        <g
           id="g96"
           transform="translate(308.3271,385.8115)">
          <path
             d="m 0,0 c 0.037,1.807 0.41,3.324 1.907,5.002 2.099,2.279 4.891,2.872 7.646,1.77 0.779,-0.335 1.534,-0.829 2.266,-1.584 2.352,-2.531 2.726,-5.844 0.965,-9.007 C 12.553,-4.208 12.288,-4.568 11.99,-4.901 10.568,-6.521 8.671,-7.255 6.967,-7.233 5.136,-7.19 3.659,-6.78 2.005,-5.088 0.738,-3.753 -0.021,-1.756 0,0 m 2.512,0.025 c 0,-1.368 0.425,-2.508 1.275,-3.421 0.977,-1.032 2.04,-1.359 3.18,-1.367 1.245,0 2.289,0.458 3.131,1.374 0.956,1.054 1.256,2.205 1.263,3.439 0,1.386 -0.421,2.529 -1.263,3.433 C 9.13,4.508 8.074,4.83 6.942,4.839 5.689,4.839 4.638,4.381 3.787,3.465 2.822,2.41 2.52,1.26 2.512,0.025"
             style="fill:#424243;fill-opacity:1;fill-rule:evenodd;stroke:none"
             id="path98" />
        </g>
        <g
           id="g100"
           transform="translate(336.2227,378.9766)">
          <path
             d="m 0,0 v 1.673 c -1.29,-1.392 -2.98,-2.009 -4.505,-1.991 -2.018,0 -3.695,0.687 -5.03,2.064 -0.667,0.689 -1.167,1.463 -1.501,2.325 -0.69,1.82 -0.841,4.469 0.607,6.809 0.239,0.381 0.512,0.735 0.822,1.063 1.509,1.644 3.288,2.13 4.956,2.121 1.723,-0.035 3.124,-0.454 4.674,-2.004 v 6.107 H 2.455 V 0 Z m -9.025,6.94 c 0,-1.39 0.449,-2.556 1.347,-3.497 1.021,-1.056 2.123,-1.404 3.299,-1.411 1.188,0 2.234,0.473 3.141,1.417 0.995,1.044 1.355,2.152 1.36,3.317 0,1.348 -0.449,2.504 -1.348,3.465 -1.002,1.064 -2.071,1.437 -3.201,1.443 -1.269,0 -2.352,-0.458 -3.251,-1.374 C -8.686,9.261 -9.019,8.137 -9.025,6.94"
             style="fill:#424243;fill-opacity:1;fill-rule:evenodd;stroke:none"
             id="path102" />
        </g>
        <g
           id="g104"
           transform="translate(356.8047,385.5146)">
          <path
             d="m 0,0 v -6.538 h -2.591 v 6.701 l -5.422,11.466 h 2.859 l 3.902,-8.733 3.899,8.733 h 2.855 z"
             style="fill:#424243;fill-opacity:1;fill-rule:evenodd;stroke:none"
             id="path106" />
        </g>
        <g
           id="g108"
           transform="translate(375.1172,378.9766)">
          <path
             d="m 0,0 v 1.673 c -1.292,-1.392 -2.986,-2.009 -4.514,-1.991 -2.023,0 -3.703,0.687 -5.041,2.064 -0.669,0.689 -1.17,1.463 -1.505,2.325 -0.69,1.82 -0.841,4.469 0.609,6.809 0.239,0.381 0.513,0.735 0.823,1.063 1.514,1.644 3.295,2.13 4.967,2.121 1.732,-0.039 3.114,-0.431 4.661,-2.006 v 1.647 H 2.432 V 0 Z m -9.049,6.94 c 0,-1.39 0.45,-2.556 1.351,-3.497 1.022,-1.056 2.129,-1.404 3.307,-1.411 1.19,0 2.24,0.473 3.149,1.417 0.997,1.044 1.358,2.152 1.363,3.317 0,1.348 -0.45,2.504 -1.35,3.465 -1.005,1.064 -2.078,1.437 -3.21,1.443 -1.272,0 -2.359,-0.458 -3.259,-1.374 C -8.709,9.261 -9.042,8.137 -9.049,6.94"
             style="fill:#424243;fill-opacity:1;fill-rule:evenodd;stroke:none"
             id="path110" />
        </g>
        <g
           id="g112"
           transform="translate(394.1465,383.6377)">
          <path
             d="m 0,0 c -0.562,-1.648 -1.396,-2.896 -2.502,-3.746 -1.252,-0.95 -2.602,-1.267 -4.039,-1.274 -1.879,0.042 -3.306,0.453 -4.932,2.122 -1.862,2.031 -2.554,5.001 -1.519,7.782 0.303,0.785 0.75,1.548 1.422,2.29 1.444,1.611 3.373,2.331 5.101,2.308 1.538,0 2.872,-0.435 4.003,-1.307 0.567,-0.436 1.055,-0.96 1.465,-1.571 C -0.59,5.991 -0.256,5.291 0,4.503 h -2.671 c -0.98,1.997 -2.619,2.521 -4.012,2.51 -1.192,0 -2.203,-0.462 -3.034,-1.385 -0.936,-1.053 -1.239,-2.195 -1.246,-3.416 0,-1.372 0.422,-2.515 1.265,-3.43 0.967,-1.035 2.02,-1.363 3.148,-1.371 0.843,0 1.606,0.225 2.286,0.675 0.824,0.557 1.256,1.202 1.593,1.914 z"
             style="fill:#424243;fill-opacity:1;fill-rule:evenodd;stroke:none"
             id="path114" />
        </g>
        <g
           id="g116"
           transform="translate(400.1006,378.9766)">
          <path
             d="M 0,0 H -2.432 V 18.167 H 0 v -5.991 c 0.882,1.357 2.416,1.783 3.698,1.768 1.628,0 2.893,-0.531 3.797,-1.592 C 7.946,11.82 8.285,11.183 8.511,10.438 8.736,9.693 8.85,8.842 8.85,7.884 V 0 H 6.418 v 7.084 c 0,1.524 -0.252,2.657 -0.755,3.398 C 5.013,11.396 4.228,11.576 3.35,11.594 2.442,11.565 1.792,11.4 1.011,10.595 0.432,9.91 0.249,9.377 0.115,8.596 0.02,7.946 0.002,7.147 0,6.246 Z"
             style="fill:#424243;fill-opacity:1;fill-rule:evenodd;stroke:none"
             id="path118" />
        </g>
        <g
           id="g120"
           transform="translate(413.708,378.9766)">
          <path
             d="m 0,0 v 11.475 h -1.913 v 2.23 H 0 v 4.462 h 2.393 v -4.462 h 1.913 v -2.23 H 2.393 V 0 Z"
             style="fill:#424243;fill-opacity:1;fill-rule:evenodd;stroke:none"
             id="path122" />
        </g>
        <g
           id="g124"
           transform="translate(445.4687,383.5186)">
          <path
             d="m 0,0 c -1.173,-2.506 -3.377,-4.081 -5.413,-4.585 -0.79,-0.21 -1.636,-0.315 -2.535,-0.315 -2.479,0.064 -4.483,0.649 -6.727,3.118 -2.372,2.785 -2.98,6.449 -1.598,10.035 0.444,1.063 1.095,2.096 2.075,3.1 1.812,1.848 4.154,2.656 6.274,2.631 1.823,0 3.425,-0.44 4.805,-1.321 0.689,-0.44 1.294,-0.972 1.814,-1.595 C -0.785,10.445 -0.35,9.73 0,8.925 h -3.029 c -1.25,1.813 -3.234,2.452 -4.926,2.429 -1.537,-0.039 -2.912,-0.396 -4.413,-1.898 -2.129,-2.272 -2.631,-5.685 -0.914,-8.708 0.221,-0.365 0.476,-0.702 0.765,-1.01 1.212,-1.313 2.985,-2.067 4.554,-2.049 1.463,0.032 2.576,0.284 3.872,1.32 0.337,0.286 0.638,0.616 0.902,0.991 z"
             style="fill:#424243;fill-opacity:1;fill-rule:evenodd;stroke:none"
             id="path126" />
        </g>
        <path
           d="m 449.071,397.144 h 2.392 v -18.167 h -2.392 z"
           style="fill:#424243;fill-opacity:1;fill-rule:evenodd;stroke:none"
           id="path128" />
        <g
           id="g130"
           transform="translate(466.625,378.9766)">
          <path
             d="M 0,0 H -2.318 V 1.518 C -3.369,0.135 -4.722,-0.33 -5.95,-0.318 c -1.696,0 -3.008,0.535 -3.937,1.604 -0.465,0.535 -0.813,1.18 -1.046,1.933 -0.232,0.753 -0.348,1.614 -0.348,2.585 v 7.901 H -8.85 V 6.516 c 0,-1.482 0.257,-2.592 0.77,-3.333 0.654,-0.907 1.435,-1.094 2.307,-1.111 0.908,0.03 1.566,0.195 2.366,1.009 0.577,0.669 0.765,1.23 0.9,1.999 0.038,0.241 0.068,0.557 0.087,0.945 0.019,0.39 0.028,0.853 0.028,1.389 v 6.291 H 0 Z"
             style="fill:#424243;fill-opacity:1;fill-rule:evenodd;stroke:none"
             id="path132" />
        </g>
        <g
           id="g134"
           transform="translate(473.042,380.6494)">
          <path
             d="m 0,0 v -1.673 h -2.456 v 18.168 h 2.432 v -6.108 c 1.383,1.455 3.098,2.018 4.67,2.005 1.955,-0.041 3.341,-0.458 4.952,-2.121 1.308,-1.363 1.959,-3.31 1.938,-5.028 0,-2.07 -0.666,-3.794 -2,-5.17 C 8.87,-0.615 8.117,-1.131 7.277,-1.476 6.437,-1.819 5.512,-1.991 4.5,-1.991 2.893,-1.956 1.511,-1.544 0,0 m -0.098,5.093 c 0,-1.266 0.453,-2.371 1.361,-3.317 0.993,-1.029 2.041,-1.413 3.139,-1.417 1.293,0 2.387,0.468 3.282,1.406 C 8.696,2.839 9.017,4.012 9.025,5.268 9.025,6.583 8.574,7.7 7.671,8.621 6.659,9.643 5.575,9.995 4.427,10.001 3.191,10.001 2.128,9.522 1.238,8.564 0.244,7.485 -0.091,6.325 -0.098,5.093"
             style="fill:#424243;fill-opacity:1;fill-rule:evenodd;stroke:none"
             id="path136" />
        </g>
        <g
           id="g138"
           transform="translate(171.0576,362.7842)">
          <path
             d="M 0,0 0.743,2.747 H 2.747 L 2.618,2.271 H 1.172 L 1.015,1.687 h 1.32 L 2.208,1.216 H 0.887 L 0.695,0.507 H 2.208 L 2.071,0 Z"
             style="fill:#85a5cc;fill-opacity:1;fill-rule:evenodd;stroke:none"
             id="path140" />
        </g>
        <g
           id="g142"
           transform="translate(173.5264,363.4395)">
          <path
             d="M 0,0 H 0.54 C 0.557,-0.444 0.907,-0.371 1.236,-0.187 1.404,0.049 1.099,0.079 0.809,0.153 0.151,0.336 0.233,0.55 0.267,0.766 0.393,1.261 0.918,1.455 1.288,1.442 1.561,1.442 1.758,1.382 1.881,1.261 2.027,1.112 2.032,0.94 1.992,0.751 H 1.463 C 1.461,1.139 1.134,1.087 0.862,0.919 0.699,0.733 1.006,0.657 1.31,0.587 2.009,0.404 1.873,0.196 1.849,-0.022 1.687,-0.612 1.12,-0.729 0.702,-0.727 -0.085,-0.711 -0.08,-0.281 0,0"
             style="fill:#85a5cc;fill-opacity:1;fill-rule:evenodd;stroke:none"
             id="path144" />
        </g>
        <g
           id="g146"
           transform="translate(176.3989,362.7705)">
          <path
             d="M 0,0 C -0.076,-0.001 -0.154,-0.006 -0.313,-0.01 -1.047,0.063 -0.691,0.322 -0.7,0.563 l 0.297,1.095 h -0.27 L -0.57,2.04 h 0.27 l 0.15,0.554 H 0.39 L 0.24,2.04 H 0.552 L 0.449,1.658 H 0.137 L -0.167,0.537 C -0.168,0.3 -0.004,0.437 0.11,0.407 Z"
             style="fill:#85a5cc;fill-opacity:1;fill-rule:evenodd;stroke:none"
             id="path148" />
        </g>
        <g
           id="g150"
           transform="translate(176.6836,362.7842)">
          <path
             d="M 0,0 0.151,0.561 H 0.716 L 0.564,0 Z"
             style="fill:#85a5cc;fill-opacity:1;fill-rule:evenodd;stroke:none"
             id="path152" />
        </g>
        <g
           id="g154"
           transform="translate(179.4419,362.7842)">
          <path
             d="m 0,0 0.493,1.823 h -0.642 l 0.102,0.376 C 0.354,2.168 0.741,2.359 0.822,2.67 H 1.25 L 0.528,0 Z"
             style="fill:#85a5cc;fill-opacity:1;fill-rule:evenodd;stroke:none"
             id="path156" />
        </g>
        <g
           id="g158"
           transform="translate(182.2729,363.834)">
          <path
             d="m 0,0 c -0.167,-0.132 -0.371,-0.187 -0.559,-0.186 -0.701,0.008 -0.736,0.539 -0.637,0.869 0.157,0.631 0.763,0.961 1.195,0.937 0.937,-0.041 0.765,-0.809 0.647,-1.317 -0.285,-1.088 -0.938,-1.447 -1.449,-1.43 -0.64,0.01 -0.682,0.425 -0.625,0.686 l 0.54,-0.002 c 0.049,-0.514 0.692,-0.161 0.767,0.138 C -0.077,-0.218 -0.037,-0.116 0,0 m 0.178,0.691 c 0.064,0.215 0.03,0.496 -0.296,0.494 -0.208,0.02 -0.465,-0.196 -0.527,-0.486 -0.106,-0.245 0.08,-0.661 0.624,-0.337 0.113,0.097 0.165,0.207 0.199,0.329"
             style="fill:#85a5cc;fill-opacity:1;fill-rule:evenodd;stroke:none"
             id="path160" />
        </g>
        <g
           id="g162"
           transform="translate(183.6919,362.7842)">
          <path
             d="m 0,0 h -0.558 c 0.236,0.719 0.722,1.424 1.514,2.14 h -1.319 l 0.122,0.452 H 1.662 L 1.554,2.193 C 0.733,1.506 0.244,0.732 0,0"
             style="fill:#85a5cc;fill-opacity:1;fill-rule:evenodd;stroke:none"
             id="path164" />
        </g>
        <g
           id="g166"
           transform="translate(185.0684,363.5947)">
          <path
             d="M 0,0 H 0.516 C 0.417,-0.259 0.569,-0.631 1.161,-0.342 1.311,-0.207 1.464,0.006 1.304,0.26 1.186,0.364 1.033,0.366 0.867,0.357 l 0.1,0.37 C 1.25,0.701 1.692,0.842 1.554,1.345 1.432,1.503 0.945,1.503 0.833,1.013 H 0.328 C 0.518,1.677 1.054,1.867 1.458,1.859 2.418,1.763 2.335,1.223 1.84,0.703 1.79,0.667 1.734,0.634 1.672,0.605 1.961,0.468 1.984,0.201 1.922,-0.018 1.761,-0.65 1.142,-0.905 0.701,-0.888 -0.153,-0.864 -0.084,-0.343 0,0"
             style="fill:#85a5cc;fill-opacity:1;fill-rule:evenodd;stroke:none"
             id="path168" />
        </g>
        <g
           id="g170"
           transform="translate(153.9727,359.7979)">
          <path
             d="M 0,0 36.829,-0.002 37.088,1.91 15.559,1.838 15.54,56.895 h -2.065 l 0.06,-55.103 -13.7,-0.094 z"
             style="fill:#85a5cc;fill-opacity:1;fill-rule:evenodd;stroke:none"
             id="path172" />
        </g>
        <g
           id="g174"
           transform="translate(133.5391,394.4355)">
          <path
             d="m 0,0 c -1.428,-2.217 -2.195,-4.559 -2.524,-6.961 -0.329,-2.402 -0.22,-4.865 0.406,-7.182 0.626,-2.315 1.768,-4.484 3.65,-6.59 1.882,-2.106 4.504,-4.149 7.516,-5.602 3.014,-1.454 6.418,-2.318 10.08,-2.707 3.663,-0.39 7.583,-0.304 10.059,-0.058 2.475,0.246 3.504,0.653 3.73,1.157 0.227,0.505 -0.349,1.107 -1.178,1.336 -0.83,0.229 -1.913,0.085 -3.203,0.165 -1.291,0.08 -2.789,0.383 -4.598,1.179 -1.809,0.796 -3.927,2.083 -5.63,3.909 -3.402,3.671 -5.082,9.212 -4.731,14.039 0.163,2.419 0.796,4.723 1.861,6.822 1.063,2.098 2.559,3.991 4.261,5.529 1.701,1.539 3.609,2.723 5.207,3.318 1.597,0.596 2.885,0.602 3.925,0.667 1.041,0.064 1.836,0.188 2.122,0.659 0.285,0.471 0.063,1.288 -2.03,1.594 -2.092,0.307 -6.054,0.102 -8.996,-0.268 -2.942,-0.37 -4.865,-0.905 -7.082,-1.7 C 10.627,8.512 8.114,7.458 5.814,5.884 3.515,4.311 1.427,2.217 0,0"
             style="fill:#85a5cc;fill-opacity:1;fill-rule:evenodd;stroke:none"
             id="path176" />
        </g>
        <g
           id="g178"
           transform="translate(146.4985,393.2441)">
          <path
             d="M 0,0 C 1.392,2.471 2.784,4.94 4.46,6.737 6.137,8.533 8.098,9.656 10.059,10.778 6.786,10.489 3.529,9.875 1.04,9.109 -1.45,8.343 -3.173,7.426 -4.364,6.713 -5.554,6 -6.211,5.493 -6.788,4.9 Z"
             style="fill:#ffffff;fill-opacity:1;fill-rule:evenodd;stroke:none"
             id="path180" />
        </g>
        <g
           id="g182"
           transform="translate(132.896,383.4473)">
          <path
             d="m 0,0 c 0.241,-2.431 1.021,-4.699 2.404,-6.828 1.383,-2.128 3.369,-4.116 5.596,-5.578 2.228,-1.462 4.698,-2.398 7.529,-3.065 2.831,-0.667 6.023,-1.066 9.214,-1.097 -2.744,1.214 -5.261,2.965 -7.22,5.017 -1.958,2.052 -3.358,4.404 -4.197,6.883 -0.84,2.479 -1.12,5.085 -1.18,7.061 C 12.087,4.368 12.248,5.713 12.63,7 L 4.494,13.061 C 2.864,11.503 1.609,9.557 0.833,7.288 0.056,5.021 -0.242,2.43 0,0"
             style="fill:#ffffff;fill-opacity:1;fill-rule:evenodd;stroke:none"
             id="path184" />
        </g>
      </g>
    </g>
  </g>
</svg>
